<svg version="1.1" id="Layer_1" xmlns="http://www.w3.org/2000/svg" xmlns:xlink="http://www.w3.org/1999/xlink" x="0px" y="0px"
	 width="100%" viewBox="0 0 144 304" enable-background="new 0 0 144 304" xml:space="preserve">
<path fill="#000000" opacity="1.000000" stroke="none" 
	d="
M55.458069,305.000000 
	C54.105320,299.411743 56.267128,293.831085 54.920914,288.179962 
	C54.510197,286.455872 55.937336,284.645355 57.685497,283.774689 
	C59.644234,282.799103 59.992157,285.035156 61.253067,285.973846 
	C62.841057,284.059235 62.487072,281.962250 62.354496,279.474426 
	C53.751873,279.302521 44.610992,280.656006 39.524273,271.509796 
	C37.662251,272.004303 38.554890,273.259216 38.283531,274.062531 
	C37.944195,275.067108 37.591755,275.997131 36.379791,276.021973 
	C35.160572,276.047028 34.723057,275.105255 34.391350,274.123138 
	C33.671017,271.990387 33.610825,269.319855 29.573555,269.161072 
	C32.804100,274.287048 32.193134,280.496307 36.325867,285.035095 
	C38.119640,282.690948 35.623623,279.335419 38.260914,277.295990 
	C42.264915,280.866119 46.947601,283.165497 51.483665,285.655640 
	C53.204643,286.600403 53.672146,287.713409 52.906212,289.241608 
	C52.056351,290.937225 50.737614,291.736420 48.889355,290.270264 
	C46.458370,288.341888 44.284554,286.002930 40.727921,284.740723 
	C40.784962,289.167297 43.101460,292.521912 44.449966,297.568542 
	C39.932182,295.540649 37.213905,293.087433 35.317429,290.031586 
	C32.368584,285.280060 30.251110,280.079956 28.612530,274.711060 
	C28.515724,274.393921 28.506729,273.980255 28.296654,273.777405 
	C20.177046,265.936493 18.045185,254.787125 12.702160,245.410141 
	C10.362401,241.303879 10.830961,235.692902 7.223271,232.299042 
	C4.357087,229.602753 4.700561,226.396225 4.148265,223.256638 
	C4.028022,222.573105 4.651433,221.758728 5.562614,220.815750 
	C6.989898,228.889069 15.378250,233.750824 14.604873,242.757660 
	C19.766880,239.972473 20.473444,246.177139 24.010439,246.476212 
	C23.156422,249.250183 20.928486,249.216583 19.047792,249.961700 
	C18.944986,255.696243 25.835537,256.914429 26.181795,262.878326 
	C30.024967,256.788116 34.399021,257.139526 38.072411,262.330017 
	C40.053246,265.128937 41.335018,268.312164 43.099422,271.021759 
	C45.023762,270.873810 45.819546,269.755157 46.330677,268.528351 
	C47.607243,265.464417 49.814548,265.527588 52.455452,266.390656 
	C56.578293,267.738037 60.486969,266.829529 65.040047,265.243286 
	C62.093040,261.655334 59.646004,258.455719 56.944893,255.487335 
	C55.728554,254.150635 53.952629,254.512054 52.240395,254.969086 
	C45.602474,256.740906 40.336498,253.423645 35.114220,250.108627 
	C34.587822,249.774506 34.173103,249.154190 33.896221,248.575867 
	C33.710827,248.188644 33.860977,247.640762 33.860977,247.084778 
	C36.016239,245.963013 37.635994,248.170425 40.044559,247.768082 
	C40.482277,245.745071 41.714813,243.959946 44.335827,244.006851 
	C43.711948,236.971802 47.523983,232.421478 52.590172,229.234177 
	C57.948368,225.863159 59.232292,221.002625 54.774906,216.014877 
	C52.394535,213.351257 52.768528,211.490768 55.734741,209.367828 
	C57.901608,211.932465 59.709610,214.392746 61.252045,217.241623 
	C63.950264,222.225235 66.768768,222.641388 71.624672,219.599945 
	C72.301598,219.175964 73.029816,218.833878 73.601891,218.525284 
	C75.476250,219.526581 73.607437,220.648682 73.893059,221.576141 
	C80.651985,218.538696 89.002403,220.617065 94.062347,214.151398 
	C86.572289,211.321091 77.230209,210.749313 71.431595,203.053848 
	C70.565384,201.904266 70.544952,201.919662 69.937767,199.122086 
	C74.663620,196.926208 76.653015,205.097427 82.263718,201.973694 
	C86.128059,199.822235 89.789757,198.113861 91.890778,193.877579 
	C93.615662,193.336243 94.226837,195.913727 96.032692,195.737305 
	C96.123772,193.820038 93.465462,192.396896 95.074852,190.270294 
	C96.774147,189.564301 97.496109,191.805984 99.061638,191.593155 
	C98.874138,189.731369 96.290550,188.426239 97.803360,186.224350 
	C99.661789,185.660217 100.491669,187.474380 101.923676,187.876831 
	C102.958519,186.257416 100.277260,184.746292 102.265747,182.962265 
	C104.899445,187.004135 111.671959,180.917694 113.233528,188.844650 
	C114.554855,186.740219 112.511139,185.044464 114.606224,184.146072 
	C114.972153,184.387573 115.561569,184.665054 116.010818,185.090530 
	C119.922829,188.795517 120.529495,191.439987 116.137543,195.482056 
	C111.489197,199.760040 111.397278,203.682617 114.021500,208.637848 
	C114.347801,209.253983 114.066055,210.192123 114.066055,210.999313 
	C103.702690,210.372116 99.154610,215.152893 99.306908,225.782104 
	C99.425285,234.043594 98.747139,242.380646 102.346443,250.179504 
	C104.530548,254.911942 106.221375,260.056732 109.303093,264.132080 
	C111.791466,267.422791 116.467201,267.230530 120.432892,266.102478 
	C125.074829,264.782104 129.449844,264.759247 133.879074,266.952301 
	C137.902512,268.944427 138.149185,270.349884 134.619736,273.222107 
	C131.592194,275.685913 127.690430,277.529083 128.131744,282.498932 
	C128.227905,283.582001 127.145546,284.143066 126.179008,284.520844 
	C123.321686,285.637543 122.196037,287.705292 122.311096,290.774963 
	C122.504700,295.940063 117.883240,297.084961 114.619667,297.959686 
	C110.600952,299.036713 106.253593,300.153778 101.863602,299.188110 
	C98.354416,298.416168 94.617210,302.721619 91.393471,298.437378 
	C88.913277,300.612122 86.684669,302.566223 84.228027,304.760193 
	C80.969406,305.000000 77.938812,305.000000 74.417557,304.650208 
	C74.010529,302.082245 71.291626,300.798096 71.975891,297.984955 
	C75.007782,298.919464 76.600189,295.624542 79.560287,295.594269 
	C82.957428,295.559570 82.721260,293.559448 81.496429,291.164429 
	C79.961678,288.163361 77.945663,285.299561 77.918030,281.430756 
	C80.255737,282.355194 82.792374,281.045868 84.820648,284.104553 
	C86.860840,272.929840 91.589264,262.798584 85.978485,251.582916 
	C89.089348,252.698349 90.609329,251.491257 91.296799,248.850266 
	C92.362640,244.755661 93.606987,240.705521 94.591454,236.592438 
	C95.219078,233.970230 94.338760,232.308441 91.239677,232.735123 
	C87.709503,233.221146 84.339317,232.181900 80.891815,231.794342 
	C74.463181,231.071671 67.055954,228.618942 64.027412,237.947906 
	C63.626362,239.183289 61.917610,239.984604 60.836887,241.010559 
	C56.282455,245.334137 56.058781,248.237091 59.864040,253.471405 
	C62.048435,252.665161 64.311317,251.994476 64.805199,249.180984 
	C65.005867,248.037827 65.974831,247.557556 67.042244,247.583542 
	C70.808044,247.675186 74.630959,248.264130 77.918785,245.582199 
	C78.235329,245.323990 79.454018,245.570190 79.728836,245.956146 
	C82.261955,249.513489 85.505844,252.742798 84.404602,257.841827 
	C82.920799,264.712250 81.416405,272.703247 77.032585,277.076141 
	C71.919701,282.176239 72.099571,290.406738 65.283852,293.797363 
	C64.920624,293.978058 64.765587,295.691864 65.137947,296.059357 
	C67.970985,298.855316 66.628914,301.942566 66.000000,305.000000 
	C62.638714,305.000000 59.277424,305.000000 55.458069,305.000000 
M92.783905,286.865814 
	C92.450264,288.269226 91.796989,289.695831 92.841660,290.813934 
	C95.039085,291.990051 96.965263,290.776459 98.939438,290.888611 
	C103.091316,291.124603 104.890266,288.724487 103.675682,284.758972 
	C103.089943,282.846588 102.312683,281.076660 103.193916,279.008087 
	C103.829018,277.517242 103.132423,276.467010 100.838745,275.906525 
	C100.434555,280.921326 96.716919,283.586273 92.783905,286.865814 
M119.235703,279.174500 
	C118.427414,280.638977 115.882858,281.446075 117.284363,283.924042 
	C121.918022,281.421570 122.023964,281.190369 119.235703,279.174500 
z"/>
<path fill="#000000" opacity="1.000000" stroke="none" 
	d="
M1.000000,181.463181 
	C4.412711,175.105850 5.855494,168.670929 5.917562,161.942734 
	C5.933203,160.247330 5.382792,158.462357 7.051089,157.425461 
	C13.273108,153.558243 14.139628,147.477676 14.827541,140.888123 
	C15.190037,137.415771 17.481216,134.144745 18.917875,130.744186 
	C20.743786,131.710815 20.533550,133.121399 20.277462,134.058502 
	C18.310139,141.257431 16.728905,148.644318 13.836744,155.468018 
	C12.659901,158.244629 14.536313,160.707336 12.999157,162.972961 
	C11.556738,163.654312 11.428926,162.042542 9.889522,161.393066 
	C8.356133,168.293091 6.806066,175.080185 5.365147,181.890366 
	C5.024507,183.500351 5.294217,185.256424 4.853325,186.824417 
	C4.125093,189.414291 4.179035,191.792862 5.944027,193.871918 
	C6.674869,194.732803 8.229910,194.662994 8.612350,193.866013 
	C9.820185,191.348846 12.105220,189.152313 10.748137,185.769852 
	C9.016526,181.453888 11.640855,178.516495 14.483180,174.783524 
	C16.600807,179.901840 14.428836,184.108658 14.930619,188.313797 
	C15.342417,191.764832 15.659592,195.171906 16.683699,198.496460 
	C17.144690,199.992950 18.707693,201.915497 16.474810,202.792145 
	C14.039814,203.748154 14.207356,201.179565 13.641127,199.759140 
	C13.463609,199.313828 13.135888,198.928406 12.892631,198.540619 
	C7.522817,199.491638 5.867044,202.083176 5.346690,210.135635 
	C5.181613,212.690186 5.848527,215.344620 4.189557,219.174744 
	C2.176861,212.713165 2.457015,207.384644 3.152012,202.127731 
	C3.536781,199.217361 4.085060,196.536835 1.312942,194.147385 
	C1.000000,189.975449 1.000000,185.950912 1.000000,181.463181 
z"/>
<path fill="#000000" opacity="1.000000" stroke="none" 
	d="
M145.000000,95.531342 
	C142.402802,98.343246 138.270874,99.279137 137.899857,104.308151 
	C133.169724,104.308151 128.379105,104.483307 123.609283,104.244156 
	C120.624519,104.094505 120.013474,102.860420 119.842308,98.519180 
	C121.697517,97.221947 122.567314,99.879303 124.181244,99.749031 
	C124.431686,98.263550 122.555489,96.910233 124.254066,95.457703 
	C127.043861,94.956032 127.577667,98.297264 130.076584,99.061440 
	C130.503571,96.715576 126.804733,95.914467 128.218567,93.171227 
	C130.346771,92.981400 133.533676,94.765961 134.273224,91.064911 
	C136.384979,91.155830 136.820938,93.031555 138.519760,93.788818 
	C138.631546,91.363297 135.378296,89.825851 137.039459,87.377960 
	C138.166672,86.335365 139.007355,88.699013 140.134811,87.664902 
	C140.285980,85.772217 138.115173,84.482399 138.825500,82.527283 
	C139.661209,81.566589 140.383728,82.816422 141.155670,82.549896 
	C141.244980,82.416245 141.439804,82.247437 141.408463,82.157295 
	C138.838715,74.768997 145.052444,68.235184 143.467911,60.947002 
	C143.171478,59.583511 143.254211,58.293148 144.674408,57.126488 
	C145.000000,69.687561 145.000000,82.375122 145.000000,95.531342 
z"/>
<path fill="#000000" opacity="1.000000" stroke="none" 
	d="
M145.000000,128.536819 
	C143.591995,128.527069 142.183990,128.054123 140.750397,127.572586 
	C139.568466,128.549332 141.481613,130.099274 140.008301,131.279556 
	C136.735825,126.470879 131.767761,122.991417 129.045013,117.137360 
	C133.905319,116.035957 134.324738,120.709785 137.035812,121.794708 
	C137.796646,119.022003 133.591995,117.683090 134.944962,114.673401 
	C137.820236,114.967987 138.616196,118.063126 141.423645,118.827805 
	C140.355743,116.826530 139.460678,115.149193 138.448242,113.251884 
	C141.835678,111.670418 142.232925,115.651695 144.679565,115.935600 
	C145.000000,120.024544 145.000000,124.049095 145.000000,128.536819 
z"/>
<path fill="#000000" opacity="1.000000" stroke="none" 
	d="
M145.000000,22.625000 
	C142.781723,25.397697 141.613266,27.785435 143.180496,31.269558 
	C144.778946,34.823063 144.050552,38.624832 142.777817,42.632954 
	C139.228897,40.698925 141.583694,38.004551 141.153366,35.508598 
	C139.079453,34.420162 136.792267,33.219799 134.404953,31.966875 
	C135.297211,28.651625 139.172943,26.966795 138.738678,22.785994 
	C138.616928,21.613861 140.551727,17.217953 144.707855,19.770782 
	C145.000000,20.750000 145.000000,21.500000 145.000000,22.625000 
z"/>
<path fill="#000000" opacity="1.000000" stroke="none" 
	d="
M136.536819,1.000000 
	C136.377502,2.990868 134.903214,3.687939 132.943222,3.977705 
	C130.521317,4.335761 128.137421,4.957058 125.742241,5.487798 
	C124.070183,5.858304 121.980087,7.418425 120.858734,5.379871 
	C119.528374,2.961341 122.877609,2.997486 123.829765,1.282454 
	C128.024551,1.000000 132.049088,1.000000 136.536819,1.000000 
z"/>
<path fill="#000000" opacity="1.000000" stroke="none" 
	d="
M145.000000,55.541931 
	C138.849960,52.531544 138.689011,49.790382 144.686462,45.160156 
	C145.000000,48.361286 145.000000,51.722576 145.000000,55.541931 
z"/>
<path fill="#000000" opacity="1.000000" stroke="none" 
	d="
M102.973549,158.954712 
	C105.025452,163.803589 108.798485,167.315353 112.243973,171.290268 
	C112.820877,169.787857 110.819611,169.145370 112.174103,167.314148 
	C115.505150,165.787735 119.390015,163.818634 122.106689,170.747406 
	C122.479744,167.240234 119.017227,166.215881 120.085197,163.303406 
	C123.623512,163.733429 124.824173,167.615875 128.065094,168.704453 
	C128.233231,165.974380 124.215477,164.423737 125.826012,161.343750 
	C127.917778,160.474350 128.942047,163.157227 130.966904,162.756042 
	C131.527725,160.203857 128.589569,158.481415 129.239929,155.513657 
	C132.466537,156.196335 132.743942,160.873001 136.612244,160.705872 
	C136.502457,156.795532 132.359772,154.445847 132.416550,150.601013 
	C134.213699,149.368652 135.235580,150.604126 135.884644,151.597366 
	C137.875687,154.644211 139.701736,157.803711 141.488861,160.977448 
	C142.909515,163.500427 142.350311,165.314774 140.055130,167.433945 
	C135.696564,171.458221 129.745316,173.598877 126.543327,178.947037 
	C125.731499,180.303009 124.277969,180.643036 123.040581,180.103134 
	C119.117805,178.391510 114.856255,177.997665 110.857849,176.250778 
	C102.825546,172.741516 94.472549,170.873123 86.088722,176.258987 
	C83.510017,177.915558 84.724480,180.999207 82.432961,182.614334 
	C79.106339,181.024551 79.676208,177.504898 79.053177,174.902161 
	C77.873505,169.974014 75.986618,166.500412 70.235817,166.757050 
	C68.884941,166.817337 67.634819,166.232422 66.609871,165.289215 
	C64.839516,163.660049 62.614902,163.983292 60.975430,164.893295 
	C55.894611,167.713425 53.303005,172.760468 49.907677,177.534760 
	C46.422806,177.189041 44.837982,172.493820 47.593441,168.140427 
	C49.246052,165.529419 51.376423,163.431824 52.098518,160.062576 
	C52.613228,157.660995 55.512501,157.433472 57.938423,158.824112 
	C62.252338,161.297028 66.573418,161.824768 70.957619,158.830017 
	C73.029228,157.414963 75.768257,158.142456 78.413521,157.339859 
	C77.220169,154.495010 76.214691,152.098038 75.224350,149.737152 
	C77.202110,147.245224 80.634880,146.397781 80.993507,142.607941 
	C82.784233,143.738632 84.137199,144.592926 85.560875,145.491867 
	C86.966591,143.450928 84.119225,142.463943 85.047546,140.369553 
	C87.963074,139.665939 88.312218,137.264313 87.377457,134.946243 
	C88.465523,132.915512 89.808350,134.212631 90.848274,133.798630 
	C90.845161,129.456299 94.853691,126.907410 95.725624,122.976357 
	C94.654243,119.951126 90.418602,118.908104 90.551056,115.049141 
	C92.876656,113.923592 94.134262,116.078003 95.807381,116.228661 
	C98.417259,116.463684 100.513947,121.337250 103.683571,117.189278 
	C103.731682,117.126297 105.553902,117.983688 105.542923,118.383995 
	C105.486679,120.435600 108.379066,122.346634 106.196831,124.359550 
	C96.139008,133.636948 92.745163,147.408768 83.734253,157.425171 
	C80.793434,160.694153 81.069366,165.337128 80.332695,169.894638 
	C84.182106,169.632477 87.461166,170.038620 89.829002,166.328293 
	C90.905289,164.641800 92.517784,161.587814 96.085915,163.706146 
	C96.726059,164.086197 100.483795,163.610718 99.810165,160.162750 
	C99.268791,157.391769 100.948067,158.056168 102.730240,158.886322 
	C103.000732,158.992447 102.973549,158.954712 102.973549,158.954712 
z"/>
<path fill="#000000" opacity="1.000000" stroke="none" 
	d="
M103.016273,159.009705 
	C102.776703,156.610001 100.703445,153.922150 104.086784,152.028076 
	C104.244186,151.939957 104.291580,151.319427 104.153435,151.088501 
	C100.923401,145.688828 105.655609,143.645828 108.665894,141.406372 
	C110.643608,139.935089 110.332390,137.955154 111.088470,136.562469 
	C112.694702,134.919662 114.021126,137.204468 115.692368,136.353500 
	C115.025475,134.848068 114.372917,133.375000 113.826920,132.142471 
	C114.237228,129.839676 116.255829,131.191635 117.116234,130.199188 
	C118.327225,128.747543 116.245522,127.389183 117.474625,125.268661 
	C118.336639,124.224815 119.572868,126.959732 121.257217,125.811699 
	C118.435143,122.379578 121.847267,119.388474 122.021675,115.141685 
	C127.000671,118.080971 130.699814,121.577995 133.135574,126.218552 
	C133.995697,127.857216 132.857529,129.624115 131.631790,131.188110 
	C125.395821,139.144943 118.058556,146.169693 112.433037,154.695663 
	C110.863380,157.074631 108.916084,162.601456 103.255600,159.134674 
	C102.973549,158.954712 103.000732,158.992447 103.016273,159.009705 
z"/>
<path fill="#000000" opacity="1.000000" stroke="none" 
	d="
M93.664902,99.775360 
	C91.855881,103.361595 90.205528,106.610847 89.342621,110.214005 
	C88.602798,113.303246 83.228210,114.673637 80.998199,112.444771 
	C79.047569,110.495140 81.387032,106.929237 85.655609,105.346207 
	C86.781860,103.752228 80.512627,99.251595 87.789963,100.028214 
	C88.241226,98.654518 86.814529,97.134552 88.068542,95.718269 
	C89.555710,94.803566 90.146553,97.138969 91.977379,96.683311 
	C96.477951,89.453117 89.204895,87.323486 84.850143,82.841614 
	C90.775742,82.230865 89.044609,74.885887 94.571846,73.458382 
	C95.240646,76.145332 94.124786,77.807465 93.207649,79.500389 
	C91.407837,82.822678 92.618210,85.682030 94.783569,88.181671 
	C97.169373,90.935768 99.876396,89.666229 102.498795,88.358849 
	C103.973671,87.623558 105.551445,87.081413 106.983086,86.275101 
	C111.530441,83.714012 117.484314,82.633858 117.381142,75.106949 
	C121.972961,77.837280 120.169327,81.293449 120.138626,84.067665 
	C120.108170,86.819481 117.406708,86.755196 115.359802,87.431702 
	C107.437119,90.050201 98.980301,91.808334 93.664902,99.775360 
z"/>
<path fill="#000000" opacity="1.000000" stroke="none" 
	d="
M48.339783,61.415543 
	C46.230114,64.399887 45.423851,67.636887 45.311596,70.655479 
	C45.021576,78.454002 38.446804,82.707947 35.830326,89.227509 
	C33.232204,85.040710 35.899796,81.544312 37.480625,78.430885 
	C40.693920,72.102348 44.365345,66.172897 44.985886,58.744553 
	C45.239605,55.707378 47.448849,53.115643 50.991875,51.499649 
	C56.759068,48.869202 60.754444,43.688877 65.232864,39.278187 
	C66.123421,38.401104 66.483246,36.832664 69.156212,36.878231 
	C66.923271,41.790245 69.605721,47.922394 63.287766,51.481709 
	C60.493099,47.683460 58.140759,49.391308 55.546192,52.150459 
	C52.925545,54.937347 50.091091,57.496651 48.339783,61.415543 
z"/>
<path fill="#000000" opacity="1.000000" stroke="none" 
	d="
M22.408695,230.877380 
	C20.482584,228.058182 21.540386,227.278702 24.131317,227.830139 
	C25.350134,228.089539 26.166000,229.477478 27.737898,229.082108 
	C28.963030,228.773972 30.270815,228.794464 31.652760,228.657944 
	C31.815990,227.986115 32.312469,227.136932 32.070976,226.757843 
	C28.332191,220.888733 34.736179,219.287231 36.871513,216.223831 
	C38.400581,214.030182 41.844894,216.079712 42.336502,219.044006 
	C43.213116,224.329819 39.828224,228.922256 40.043465,234.110580 
	C40.091732,235.274033 38.937756,236.291168 37.562828,235.862366 
	C32.585548,234.310074 26.860977,235.088852 22.408695,230.877380 
z"/>
<path fill="#000000" opacity="1.000000" stroke="none" 
	d="
M120.457947,220.854904 
	C118.130447,220.245056 116.128143,219.984253 114.300331,219.274231 
	C112.645294,218.631302 111.602890,217.167114 112.287498,215.287033 
	C113.044930,213.206924 114.799545,213.425201 116.460266,214.007751 
	C118.108521,214.585892 119.497986,216.217896 121.380005,215.227661 
	C123.011459,214.127686 121.054871,212.143524 122.686211,211.101685 
	C125.032310,210.584747 125.951561,212.946823 128.094925,213.888412 
	C128.342133,211.816010 125.286049,210.246353 127.214340,208.248428 
	C132.576340,210.986618 134.166916,214.949890 132.201935,220.351471 
	C131.337112,222.728836 129.455505,222.444992 127.678101,222.225342 
	C125.389923,221.942596 123.130791,221.424805 120.457947,220.854904 
z"/>
<path fill="#000000" opacity="1.000000" stroke="none" 
	d="
M23.012419,117.130943 
	C29.727394,111.815262 30.741949,104.963005 30.041660,97.358803 
	C29.805679,94.796364 30.421839,92.116920 33.670601,91.078995 
	C35.227905,94.308380 32.561008,96.651764 32.584377,99.388634 
	C33.264149,101.074944 35.690922,99.014954 36.180813,101.080307 
	C32.277241,111.063148 27.684452,120.666817 19.582125,129.523453 
	C18.413734,123.900383 20.926905,120.764969 23.012419,117.130943 
z"/>
<path fill="#000000" opacity="1.000000" stroke="none" 
	d="
M116.951035,236.643860 
	C117.377190,234.109802 117.889267,231.917007 118.372559,229.847488 
	C120.287605,228.773300 122.087311,229.358719 123.834106,229.752945 
	C126.091972,230.262512 129.482086,233.654770 128.792908,227.531860 
	C128.715469,226.843857 129.586639,226.560089 130.289093,226.591522 
	C131.146103,226.629898 132.184006,226.853653 131.961487,227.892273 
	C131.599960,229.579880 132.667953,230.696167 133.170395,232.044113 
	C133.675034,233.397934 134.165527,234.757004 134.909790,236.790024 
	C128.726425,237.767822 123.048691,240.985535 116.951035,236.643860 
z"/>
<path fill="#000000" opacity="1.000000" stroke="none" 
	d="
M82.997780,19.698490 
	C88.515938,19.552683 92.339317,15.520617 97.323845,14.635665 
	C95.957191,17.929550 92.254829,19.102173 91.883499,22.996410 
	C84.233849,19.857748 79.335686,24.743227 73.901939,28.216242 
	C73.670204,24.007215 73.670204,24.007215 82.997780,19.698490 
z"/>
<path fill="#000000" opacity="1.000000" stroke="none" 
	d="
M112.802368,68.822327 
	C111.695877,67.584366 111.238129,66.096573 112.804138,65.894714 
	C117.278000,65.318047 117.590187,62.305874 117.139923,58.110146 
	C120.630745,60.254009 123.657333,61.836987 126.350639,63.863010 
	C128.170105,65.231697 127.326828,67.693451 125.491402,67.293396 
	C120.987030,66.311630 117.327682,69.376945 112.802368,68.822327 
z"/>
<path fill="#000000" opacity="1.000000" stroke="none" 
	d="
M62.661919,140.836975 
	C64.012299,139.613510 65.383301,141.510742 66.707947,140.129807 
	C66.791496,136.734055 66.770218,133.173447 65.617165,129.301178 
	C68.243149,129.116714 70.451744,130.050308 69.956329,132.172119 
	C68.856796,136.881348 69.638298,140.872894 72.314438,144.741638 
	C72.716431,145.322769 72.416542,146.357971 71.117943,147.235886 
	C69.487503,143.508194 63.812416,145.717377 62.661919,140.836975 
z"/>
<path fill="#000000" opacity="1.000000" stroke="none" 
	d="
M116.723740,40.902733 
	C117.784866,40.077274 118.630951,39.342400 119.651321,39.992405 
	C120.488167,40.525490 120.392151,41.535278 120.001160,42.249828 
	C117.715805,46.426430 115.349030,50.558483 112.938271,54.832260 
	C108.540573,48.534767 109.108040,46.891682 116.723740,40.902733 
z"/>
<path fill="#000000" opacity="1.000000" stroke="none" 
	d="
M112.982941,232.533356 
	C115.757545,234.138885 115.856598,236.163422 114.245872,238.120316 
	C112.680000,240.022705 110.310890,241.032928 108.003273,239.975525 
	C104.468658,238.355881 106.862091,236.834946 108.487801,235.629593 
	C108.317162,233.980225 105.946259,234.270554 106.314682,232.052505 
	C108.283974,231.238907 110.470558,231.928543 112.982941,232.533356 
z"/>
<path fill="#000000" opacity="1.000000" stroke="none" 
	d="
M75.142044,117.913773 
	C73.701637,121.899948 72.624771,125.692383 70.155067,129.044724 
	C67.566460,127.666985 66.671730,126.211594 68.032272,123.700348 
	C69.036690,121.846405 69.775940,119.845123 70.582588,117.888565 
	C71.861008,114.787682 73.379509,115.046646 75.142044,117.913773 
z"/>
<path fill="#000000" opacity="1.000000" stroke="none" 
	d="
M25.237564,177.198853 
	C27.583971,174.763260 21.980032,171.882019 26.744539,169.442810 
	C29.714636,173.058472 29.396740,177.256027 29.053385,181.902084 
	C26.274788,181.633560 23.443436,182.538101 22.313995,179.564697 
	C21.464283,177.327698 23.421265,177.305954 25.237564,177.198853 
z"/>
<path fill="#000000" opacity="1.000000" stroke="none" 
	d="
M54.818153,57.685234 
	C56.383411,56.239006 58.299816,54.130920 59.547832,55.874432 
	C61.243855,58.243820 60.926514,61.481972 59.970203,64.510269 
	C57.041000,63.878025 57.975163,61.690880 57.339130,60.450871 
	C56.052326,59.897869 54.861595,62.180740 53.751312,60.507835 
	C53.069405,59.480373 53.948269,58.677849 54.818153,57.685234 
z"/>
<path fill="#000000" opacity="1.000000" stroke="none" 
	d="
M42.737404,196.016083 
	C43.976948,199.050842 48.473522,199.565659 47.917801,202.632751 
	C44.581001,199.927811 40.949505,196.983978 37.224609,193.964447 
	C40.891518,192.442474 40.891518,192.442474 42.737404,196.016083 
z"/>
<path fill="#000000" opacity="1.000000" stroke="none" 
	d="
M133.329880,212.035767 
	C132.203201,209.024002 131.234146,206.314392 129.973526,202.789536 
	C134.288116,204.131882 135.856094,207.018875 136.856079,209.856613 
	C137.293243,211.097153 136.582321,214.155914 133.329880,212.035767 
z"/>
<path fill="#000000" opacity="1.000000" stroke="none" 
	d="
M77.602997,86.865295 
	C73.049644,89.125069 70.434296,93.264351 66.448708,96.714928 
	C66.798706,91.745461 73.558685,84.972282 77.433044,84.998367 
	C78.111275,85.002930 78.111366,85.968811 77.602997,86.865295 
z"/>
<path fill="#000000" opacity="1.000000" stroke="none" 
	d="
M18.176491,219.714355 
	C18.539186,220.778610 18.767956,221.574829 19.065516,222.344421 
	C19.857006,224.391541 19.222828,225.995636 17.384268,226.984833 
	C15.517821,227.989014 14.741250,226.212936 13.777180,225.198654 
	C13.005085,224.386383 12.416512,223.399673 10.747971,221.135239 
	C15.027762,223.510971 15.525311,219.315582 18.176491,219.714355 
z"/>
<path fill="#000000" opacity="1.000000" stroke="none" 
	d="
M19.160816,203.373138 
	C20.356354,201.456131 21.985083,200.424179 23.316406,202.044205 
	C25.168713,204.298157 24.606419,206.881226 22.798597,209.405869 
	C20.221338,208.202591 18.678907,206.616577 19.160816,203.373138 
z"/>
<path fill="#000000" opacity="1.000000" stroke="none" 
	d="
M87.987617,43.548981 
	C85.353973,42.965862 83.019997,42.509609 79.722206,41.864952 
	C83.669350,38.312195 87.060799,40.128815 90.241882,40.799210 
	C91.083176,40.976501 91.587303,42.373817 91.182205,43.358276 
	C90.500458,45.015072 89.313309,44.042873 87.987617,43.548981 
z"/>
<path fill="#000000" opacity="1.000000" stroke="none" 
	d="
M94.237991,60.818588 
	C92.434662,58.478611 90.866837,56.408482 89.196533,54.203049 
	C91.422089,52.158947 93.361145,52.607235 94.254700,54.682201 
	C95.199341,56.875793 97.866333,58.843903 96.117043,61.697414 
	C95.773972,62.257046 94.945183,61.557953 94.237991,60.818588 
z"/>
<path fill="#000000" opacity="1.000000" stroke="none" 
	d="
M51.368675,136.422180 
	C53.542789,139.429047 57.489529,138.430222 60.078186,140.953644 
	C56.351318,144.055603 53.417332,139.288467 49.655598,141.375610 
	C50.272411,138.998062 47.777390,136.971695 51.368675,136.422180 
z"/>
<path fill="#000000" opacity="1.000000" stroke="none" 
	d="
M68.520035,59.615967 
	C70.285622,57.946682 70.976654,55.267963 73.982307,55.681530 
	C72.449364,61.772358 70.542389,63.441891 66.415489,62.523006 
	C66.224411,61.071594 67.589645,60.701672 68.520035,59.615967 
z"/>
<path fill="#000000" opacity="1.000000" stroke="none" 
	d="
M104.998642,23.911558 
	C105.403748,29.119978 101.549850,28.210060 98.545547,28.568415 
	C101.313232,27.701027 99.457619,21.333527 104.998642,23.911558 
z"/>
<path fill="#000000" opacity="1.000000" stroke="none" 
	d="
M118.667709,19.866840 
	C116.796738,22.188850 114.703262,23.462894 111.792610,23.427498 
	C113.304092,19.149076 115.654984,17.920853 118.667709,19.866840 
z"/>
<path fill="#000000" opacity="1.000000" stroke="none" 
	d="
M53.074951,77.825745 
	C54.464134,79.485870 56.735321,80.340263 55.724930,83.103203 
	C53.444298,82.707939 51.676548,81.394325 50.679508,79.635406 
	C49.417046,77.408257 50.382492,76.524078 53.074951,77.825745 
z"/>
<path fill="#000000" opacity="1.000000" stroke="none" 
	d="
M28.389595,245.938385 
	C26.480021,244.055145 26.476681,242.455429 28.753145,241.541885 
	C30.146027,240.982895 31.471458,241.808380 31.856565,243.196716 
	C32.604282,245.892273 30.768990,246.174393 28.389595,245.938385 
z"/>
<path fill="#000000" opacity="1.000000" stroke="none" 
	d="
M94.160271,64.507355 
	C97.099411,66.394386 98.317711,68.291496 95.034859,71.490837 
	C93.910866,68.721130 91.394432,67.034798 94.160271,64.507355 
z"/>
<path fill="#000000" opacity="1.000000" stroke="none" 
	d="
M41.668503,97.698280 
	C43.109032,97.911171 44.355637,97.694679 45.272980,99.453789 
	C42.717712,99.372849 40.985786,102.209198 38.280865,100.519058 
	C37.912933,100.289169 37.692577,99.246910 37.890415,98.792709 
	C38.559643,97.256271 40.084965,97.847824 41.668503,97.698280 
z"/>
<path fill="#000000" opacity="1.000000" stroke="none" 
	d="
M43.114597,147.168884 
	C41.889858,144.362259 43.053539,142.824844 48.003742,140.717545 
	C47.940552,144.116821 45.377792,145.412857 43.114597,147.168884 
z"/>
</svg>